<?xml version="1.0" standalone="no"?><!DOCTYPE svg PUBLIC "-//W3C//DTD SVG 1.1//EN" "http://www.w3.org/Graphics/SVG/1.1/DTD/svg11.dtd"><svg t="1603644132104" class="icon" viewBox="0 0 1024 1024" version="1.1" xmlns="http://www.w3.org/2000/svg" p-id="10280" xmlns:xlink="http://www.w3.org/1999/xlink" width="32" height="32"><defs><style type="text/css"></style></defs><path d="M512 938.666667C277.333333 938.666667 85.333333 746.666667 85.333333 512S277.333333 85.333333 512 85.333333s426.666667 192 426.666667 426.666667-192 426.666667-426.666667 426.666667z m0-789.333334c-200.533333 0-362.666667 162.133333-362.666667 362.666667s162.133333 362.666667 362.666667 362.666667 362.666667-162.133333 362.666667-362.666667-162.133333-362.666667-362.666667-362.666667z" p-id="10281"></path><path d="M430.933333 644.266667L298.666667 512c-12.8-12.8-12.8-34.133333 0-46.933333 12.8-12.8 34.133333-12.8 46.933333 0l132.266667 132.266666c12.8 12.8 12.8 34.133333 0 46.933334-12.8 12.8-34.133333 12.8-46.933334 0z" p-id="10282"></path><path d="M725.333333 418.133333l-234.666666 234.666667c-12.8 12.8-29.866667 12.8-42.666667 0l-4.266667-4.266667c-12.8-12.8-12.8-29.866667 0-42.666666l234.666667-234.666667c12.8-12.8 29.866667-12.8 42.666667 0l4.266666 4.266667c8.533333 8.533333 8.533333 29.866667 0 42.666666z" p-id="10283"></path></svg>